# xmcd CD database file
# Copyright (C) 1993-1998 Ti Kan
# 
# Track frame offsets:
#     150
#     15700
#     29275
#     48788
#     62175
#     76313
#     90675
#     117900
#     143363
#     154613
#     165263
#     179288
#     191063
#     205088
# 
# Disc length: 2892 seconds
# 
# Revision: 1
# Processed by: cddbd v1.4b41PL1 Copyright (c) Steve Scherf et al.
# Submitted via: DiscPlay 4.0.4
# 
DISCID=a70b4a0e
DTITLE=Bukka White, Skip James, Blind Willie McTell - Three Shades of Blue
DYEAR=1900
DGENRE=
TTITLE0=Mama Don' Low
TTITLE1=Hot Springs, Arkansas
TTITLE2=Jelly Roll Workin' Man
TTITLE3=Black Crepe Blues
TTITLE4=Glory Bound Train
TTITLE5=Drunken Spree
TTITLE6=Special Rider Blues
TTITLE7=I Don't Want a Woman to Stay Out All Night Long
TTITLE8=Love Changin' Blues
TTITLE9=Savannah Mama
TTITLE10=Talkin' to You, Mama
TTITLE11=East St. Louis
TTITLE12=Wee Midnight Hours
TTITLE13=Pal Of Mine
EXTD=
EXTT0=
EXTT1=
EXTT2=
EXTT3=
EXTT4=
EXTT5=
EXTT6=
EXTT7=
EXTT8=
EXTT9=
EXTT10=
EXTT11=
EXTT12=
EXTT13=
PLAYORDER=
